<?xml version="1.0" encoding="UTF-8"?>
<svg id="Layer_2" xmlns="http://www.w3.org/2000/svg" viewBox="0 0 1272.21 242.17">
  <g id="Final">
    <g id="V3">
      <path d="M74.14,109.91l3.5-1.9c-1.18.61-2.35,1.24-3.5,1.9Z"/>
      <path d="M236.68,94.2l24.65,1.73-3.44,22.3-106.33,13.15-5.88.73-24.3,3.01,3.6-4.89c1.78-2.42,3.8-4.65,6.05-6.65,2.65-2.36,5.42-4.59,8.3-6.68l14.14-10.27c3.86-2.8,7.66-5.19,12.02-7.11.02-.01.04-.02.06-.03h.03s3.3-1.32,3.3-1.32l.48-.19c.33-.12.66-.25.99-.38,1.32-.51,2.66-1.01,3.77-1.42,2.33-.85,5.8-1.8,7.6-2.5,4.51-1.75,4.8-1.86,8.56-3.45,3.72-1.55,6.78-2.78,9.33-3.81,2.96.71,10.92,2.17,14.14,1.97,15.97-.97,27.95-13.68,28.68-29.66.82-18.08-13.6-33.34-31.5-32.99-17.64.34-29.19,10.5-31.18,29.67l-31.53,12.68c1.38-37.39,15.09-50.63,43.17-61.32,34.97-12.57,69.68-7.88,81.23,16.21,11.3,23.59-5.22,55.13-36.99,71.32.35-.03.7-.07,1.05-.11Z"/>
      <path d="M235.81,49.77c-4.09-13.3-18.21-20.97-31.59-17.14-11.95,3.42-19.47,14.75-18.55,26.64l-28.27,11.6-44.06,18.07c-.74.3-2.1.93-3.5,1.59-.02.01-.03.02-.04.02-.23.11-.45.22-.68.33-1.33.64-2.59,1.27-3.27,1.63l-9.89,4.71-18.31,10.79-3.5,1.9-.08.04c-7.39,4.22-14.27,9.4-20.44,15.45,0,0-6.61,7.36-9.04,11.48l-6.78,11.46-1.06.49-.22.12c-3.67,2.23-5.92,6.28-5.87,10.58.08,6.68,5.55,12.06,12.2,12.05h.16c1.92-.03,3.76-.48,5.43-1.34l14.81,1.74c10.92,1.28,21.96,1.21,32.85-.22l31.45-4.1-7.55,9.28c-4.01,4.92-9.42,8.5-15.51,10.26l-1.12.33c-8.28,2.4-16.9,3.49-25.51,3.26l-56.31-1.57c-4.13-.12-8.15,1.4-11.17,4.23l-.74.69c-2.97,2.78-4.83,6.59-5.94,10.3-.6,2.01-.86,2.89-1.6,4.85l-.72,2.48c-.1.38-.24.75-.37,1.12-.38,1.12-.66,2.27-.81,3.45-1.48,11.58,5.3,22.92,16.55,23.42l51.15,2.31c14.36.64,28.7-1.63,42.16-6.68l.76-.29c6.63-2.49,12.91-5.8,18.7-9.85l3.72-2.6c9.77-6.84,18.31-15.28,25.27-24.97l39.71-52.44c2.02-2.02,2.02-6.71-2.96-5.91l-40.61,6.48c-6,.97-20.88,3.77-26.95,4.01l-10.11.88c-1.89.17-3.79.23-5.7.19l-7.32-.14,2.09-5.08c.39-.96,2.31-5.91,2.95-6.69l1.47-2.9c1.03-1.97,4.43-6.44,5.54-8.18l2.03-2.02c5.14-5.11,10.77-9.71,16.81-13.73l7.29-4.86c1.39-1.04,10.54-6.78,12.89-8.33h0c2.96-2.34,6.24-4.06,9.8-5.72l32.57-13.36c2.68,1.66,5.59,2.65,8.63,3.05,3.05.41,6.25.24,9.53-.4.76-.15,1.51-.33,2.27-.55,13.73-4,21.57-18.46,17.36-32.18ZM78.32,132.49c-4.68,8.92-10.67,17.09-17.77,24.22-.82.82-1.03,1-1.39,1.33l-5.59,5.03-2.15,1.94c-.48.59-2.12,1.49-2.71,1.95-1.65,1.28-3.64,1.96-5.73,1.99-5.25.07-9.61-4.17-9.68-9.44-.04-3.37,1.72-6.55,4.61-8.3l12.39-6.56c4.03-2.68,9.59-5.31,13.09-7.74l17.34-9.02-2.42,4.61ZM222.74,58.32l-3.6,7.8c-.52,1.12-1.59,1.88-2.82,1.99l-8.56.79c-1.22.11-2.42-.44-3.13-1.45l-4.96-7.02c-.71-1.01-.83-2.32-.31-3.43l3.6-7.8c.52-1.12,1.59-1.88,2.82-1.99l8.56-.78c1.22-.11,2.42.43,3.13,1.44l4.96,7.02c.71,1.01.83,2.32.31,3.43Z"/>
      <path d="M344.82,125.11c-25.8-15.82-44.94-6.15-44.94-6.15-12.03,3.7-14.31-.03-14.73-1.85-.11-.49.04-1,.37-1.38,5.56-6.3,7.13-12.29,7.51-16.04.29-2.89-.91-6.13-3.5-7.44-3.85-1.94-8.94-2.02-8.94-2.02-5.92-.21-10.06,1.94-12.36,4.03-1.89,1.71-2.5,4.36-2.88,6.87l-4.03,26.75c-.24,1.59.55,3.16,1.97,3.92,1.52.82,3.52,1.48,5,1.92,1.36.4,2.77.6,4.19.57,8.27-.14,18.87-2.95,23.01-4.14,1.09-.32,2.93-1.19,3.92-1.73,23.3-12.8,42.28,1.21,42.28,1.21.96,1.4,2.73,3.21,3.89,4.35,1.04,1.02,2.43,1.64,3.88,1.63,3.78,0,3.92-4.07,3.92-4.07,2.32-5.24-8.56-6.45-8.56-6.45ZM275.5,120.34c-.3,2.4-2.26,4.15-4.38,3.88-2.12-.26-3.6-2.43-3.3-4.84.3-2.41,2.26-4.15,4.38-3.89s3.6,2.43,3.3,4.84Z"/>
      <path d="M347.43,105.57c.02.5-.34.95-.84.99,0,0-1.32.12-1.32.12l-41.48,3.86-3.46,3.03c-.37.32-.84.5-1.33.5h-.57c-1.35,0-2.33-1.3-1.94-2.59l.65-2.24-3.44.3s3.34-4.6,2.84-14.31l5.44-.5,2.74-4.56c.32-.52.83-.93,1.43-1.02.86-.14,1.59.23,2.01.82.24.34.38.74.38,1.18v1.98s3.43-.39,8.32-.88c-.03,2.11-.23,4.22-.6,6.32l-.73,4.11c-.21,1.15.56,2.25,1.71,2.45.12.02.25.03.37.03,1.01,0,1.9-.72,2.08-1.75l.73-4.12c.44-2.47.66-4.97.67-7.46,1.88-.18,3.87-.36,5.89-.53-.04,2.1-.23,4.2-.6,6.27l-.73,4.12c-.21,1.15.56,2.25,1.72,2.45.12.02.25.03.37.03,1.01,0,1.9-.72,2.08-1.75l.73-4.12c.43-2.43.66-4.89.67-7.36,2.01-.15,4-.3,5.89-.41-.04,2.03-.24,4.05-.6,6.05l-.73,4.11c-.2,1.15.57,2.25,1.72,2.45.12.02.25.03.37.03,1.01,0,1.9-.72,2.08-1.75l.73-4.12c.41-2.32.63-4.66.66-7,1.55-.06,2.98-.1,4.22-.1.68,0,1.24.53,1.27,1.21l.61,14.14Z"/>
      <path d="M348.62,92.54l2.08-.2c1.29-.13,2.43.84,2.51,2.14l.4,6.26c.08,1.22-.82,2.29-2.03,2.43l-2.44.27-.52-10.9Z"/>
    </g>
    <g>
      <path d="M510,94.21c-2.38,0-3.56-1.06-3.56-3.17,0-.97.31-2.02.92-3.17l3.7-6.34c.62-1.14.92-2.2.92-3.17,0-2.11-1.23-3.17-3.7-3.17-1.67,0-3.5.62-5.48,1.85-1.98,1.23-3.46,2.73-4.42,4.48l-7.39,12.67c-.61,1.15-.92,2.2-.92,3.17,0,2.12,1.23,3.17,3.7,3.17h44.35c2.38,0,3.56,1.06,3.56,3.17,0,.97-.31,2.03-.92,3.17l-14.65,25.35c-.97,1.76-2.44,3.26-4.42,4.49-1.98,1.23-3.85,1.85-5.61,1.85h-88.71c-2.38,0-3.56-1.06-3.56-3.17,0-.97.31-2.02.92-3.17l7.26-12.67c1.06-1.76,2.55-3.25,4.49-4.49,1.93-1.23,3.78-1.85,5.54-1.85h31.68c2.46,0,3.7,1.06,3.7,3.17,0,.97-.35,2.03-1.06,3.17l-3.56,6.34c-.71,1.14-1.06,2.2-1.06,3.17,0,2.11,1.23,3.17,3.68,3.17,1.75,0,3.59-.62,5.51-1.86,1.92-1.24,3.41-2.75,4.46-4.52l7.27-12.66c.75-1.14,1.12-2.19,1.12-3.15,0-2.1-1.23-3.15-3.7-3.15h-44.35c-2.46,0-3.7-1.06-3.7-3.17,0-.97.35-2.02,1.06-3.17l14.52-25.35c1.06-1.76,2.55-3.25,4.49-4.49,1.93-1.23,3.78-1.85,5.54-1.85h88.71c2.46,0,3.7,1.06,3.7,3.17,0,.97-.35,2.03-1.06,3.17l-7.26,12.67c-.97,1.76-2.44,3.26-4.42,4.49-1.98,1.23-3.85,1.85-5.61,1.85h-31.68Z"/>
      <path d="M682.93,94.21c-2.38,0-3.56-1.06-3.56-3.17,0-.97.31-2.02.92-3.17l3.7-6.34c.62-1.14.92-2.2.92-3.17,0-2.11-1.23-3.17-3.7-3.17-1.67,0-3.5.62-5.48,1.85-1.98,1.23-3.46,2.73-4.42,4.48l-7.39,12.67c-.61,1.15-.92,2.2-.92,3.17,0,2.12,1.23,3.17,3.7,3.17h44.35c2.38,0,3.56,1.06,3.56,3.17,0,.97-.31,2.03-.92,3.17l-14.65,25.35c-.97,1.76-2.44,3.26-4.42,4.49-1.98,1.23-3.85,1.85-5.61,1.85h-88.71c-2.38,0-3.56-1.06-3.56-3.17,0-.97.31-2.02.92-3.17l7.26-12.67c1.06-1.76,2.55-3.25,4.49-4.49,1.93-1.23,3.78-1.85,5.54-1.85h31.68c2.46,0,3.7,1.06,3.7,3.17,0,.97-.35,2.03-1.06,3.17l-3.56,6.34c-.71,1.14-1.06,2.2-1.06,3.17,0,2.11,1.23,3.17,3.68,3.17,1.75,0,3.59-.62,5.51-1.86,1.92-1.24,3.41-2.75,4.46-4.52l7.27-12.66c.75-1.14,1.12-2.19,1.12-3.15,0-2.1-1.23-3.15-3.7-3.15h-44.35c-2.46,0-3.7-1.06-3.7-3.17,0-.97.35-2.02,1.06-3.17l14.52-25.35c1.06-1.76,2.55-3.25,4.49-4.49,1.93-1.23,3.78-1.85,5.54-1.85h88.71c2.46,0,3.7,1.06,3.7,3.17,0,.97-.35,2.03-1.06,3.17l-7.26,12.67c-.97,1.76-2.44,3.26-4.42,4.49-1.98,1.23-3.85,1.85-5.61,1.85h-31.68Z"/>
      <path d="M779.55,181.34c-1.32,2.29-2.73,3.43-4.22,3.43-.79,0-1.41-.4-1.85-1.19l-17.56-29.83c-.53-.88-.79-2.07-.79-3.56,0-2.2.53-4.22,1.58-6.07.53-.88.79-1.72.79-2.51,0-2.03-1.32-3.04-3.96-3.04h-44.35c-2.46,0-3.7-1.06-3.7-3.17,0-.97.35-2.02,1.06-3.17l32.87-57.03c1.06-1.76,2.55-3.25,4.49-4.49,1.93-1.23,3.78-1.85,5.54-1.85h88.71c2.46,0,3.7,1.06,3.7,3.17,0,.97-.35,2.03-1.06,3.17l-61.25,106.13ZM762.78,130.38c1.93-1.23,3.43-2.73,4.48-4.5l25.61-44.36c.63-1.14.94-2.19.94-3.16,0-2.11-1.23-3.16-3.7-3.16-1.76,0-3.61.62-5.55,1.85s-3.39,2.73-4.36,4.49l-25.61,44.36c-.71,1.14-1.06,2.2-1.06,3.17,0,2.11,1.23,3.17,3.69,3.17,1.76,0,3.6-.62,5.54-1.85Z"/>
      <path d="M947.07,68.87c2.46,0,3.7,1.06,3.7,3.17,0,.97-.35,2.03-1.06,3.17l-32.87,57.03c-.97,1.76-2.44,3.26-4.42,4.49-1.98,1.23-3.85,1.85-5.61,1.85h-88.71c-2.38,0-3.56-1.06-3.56-3.17,0-.97.31-2.02.92-3.17l32.87-57.03c1.06-1.76,2.55-3.25,4.49-4.49,1.93-1.23,3.78-1.85,5.54-1.85h31.68c2.46,0,3.7,1.06,3.7,3.17,0,.97-.34,2.03-1.03,3.17l-29.18,50.69c-.72,1.14-1.08,2.2-1.08,3.16,0,2.11,1.23,3.16,3.7,3.16,1.76,0,3.61-.61,5.54-1.85,1.93-1.23,3.43-2.73,4.49-4.49l29.17-50.69c1.06-1.76,2.55-3.25,4.49-4.49,1.93-1.23,3.78-1.85,5.54-1.85h31.68Z"/>
      <path d="M1051.89,68.87c2.38,0,3.56,1.06,3.56,3.17,0,.97-.31,2.03-.92,3.17l-33,57.03c-.97,1.76-2.44,3.26-4.42,4.49-1.98,1.23-3.81,1.85-5.48,1.85h-88.71c-2.46,0-3.7-1.06-3.7-3.17,0-.97.31-2.02.92-3.17l14.65-25.35c1.06-1.76,2.55-3.25,4.49-4.49,1.93-1.23,3.78-1.85,5.54-1.85h44.35c1.77,0,3.63-.61,5.57-1.84,1.95-1.23,3.45-2.72,4.51-4.48l7.3-12.64c.55-1.15.83-2.22.83-3.19,0-2.13-1.19-3.2-3.56-3.2-1.75,0-3.58.62-5.49,1.86-1.92,1.24-3.4,2.75-4.44,4.53l-3.68,6.35c-.97,1.74-2.45,3.22-4.44,4.44-1.98,1.22-3.82,1.83-5.49,1.83h-31.76c-2.47,0-3.71-1.06-3.71-3.17,0-.97.31-2.02.92-3.17l7.39-12.67c.97-1.76,2.44-3.25,4.42-4.49,1.98-1.23,3.85-1.85,5.61-1.85h88.71ZM988.23,113.21c.63-1.14.95-2.19.95-3.16,0-2.11-1.23-3.16-3.7-3.16-1.76,0-3.61.62-5.54,1.85-1.94,1.23-3.39,2.73-4.36,4.49l-7.39,12.67c-.62,1.14-.92,2.2-.92,3.17,0,2.11,1.19,3.17,3.56,3.17,1.76,0,3.63-.61,5.61-1.85,1.98-1.23,3.46-2.72,4.43-4.48l7.36-12.69Z"/>
      <path d="M1159.08,68.87c2.46,0,3.7,1.06,3.7,3.17,0,.97-.35,2.03-1.06,3.17l-7.26,12.67c-.97,1.76-2.44,3.26-4.42,4.49-1.98,1.23-3.85,1.85-5.61,1.85h-31.68c-2.38,0-3.56-1.06-3.56-3.17,0-.97.31-2.02.92-3.17l3.7-6.34c.61-1.14.92-2.2.92-3.17,0-2.11-1.23-3.17-3.7-3.17-1.67,0-3.5.62-5.48,1.85-1.98,1.23-3.46,2.73-4.43,4.48l-29.39,50.64c-.97,1.78-2.44,3.29-4.41,4.53-1.98,1.24-3.84,1.86-5.6,1.86h-31.62c-2.37,0-3.56-1.06-3.56-3.17,0-.97.31-2.02.92-3.17l32.87-57.03c1.06-1.76,2.55-3.25,4.49-4.49,1.93-1.23,3.78-1.85,5.54-1.85h88.71Z"/>
      <path d="M1196.59,108.73c-1.94,1.23-3.44,2.72-4.49,4.47l-7.27,12.62c-.62,1.16-.93,2.23-.93,3.21,0,2.14,1.23,3.21,3.7,3.21,1.76,0,3.61-.61,5.54-1.85,1.94-1.23,3.43-2.73,4.49-4.49l3.7-6.34c.97-1.76,2.42-3.25,4.36-4.49,1.93-1.23,3.78-1.85,5.54-1.85h31.68c2.46,0,3.7,1.06,3.7,3.17,0,.97-.31,2.03-.92,3.17l-7.39,12.67c-.97,1.76-2.44,3.26-4.42,4.49-1.98,1.23-3.85,1.85-5.61,1.85h-88.71c-2.38,0-3.56-1.06-3.56-3.17,0-.97.31-2.02.92-3.17l33-57.03c.97-1.76,2.42-3.25,4.36-4.49,1.94-1.23,3.78-1.85,5.54-1.85h88.71c2.46,0,3.7,1.06,3.7,3.17,0,.97-.31,2.03-.93,3.17l-14.67,25.35c-1.06,1.76-2.56,3.26-4.5,4.49-1.94,1.23-3.79,1.85-5.55,1.85h-44.42c-1.76,0-3.61.61-5.55,1.84ZM1203.12,94.19c-.59,1.15-.88,2.21-.88,3.18,0,2.12,1.23,3.18,3.7,3.18,1.67,0,3.5-.61,5.48-1.85,1.98-1.23,3.45-2.73,4.42-4.49l7.39-12.67c.62-1.14.92-2.2.92-3.17,0-2.11-1.19-3.17-3.58-3.17-1.77,0-3.64.61-5.63,1.84-1.99,1.23-3.46,2.72-4.43,4.47l-7.39,12.67Z"/>
    </g>
    <g>
      <path d="M826.24,173.88c.49.42.89.96,1.2,1.61.3.65.46,1.35.46,2.1,0,.65-.11,1.26-.33,1.82-.22.56-.52,1.05-.9,1.47s-.81.75-1.31.99c-.49.24-1.01.36-1.56.36h-13.64v-16.15h13.58c.39,0,.78.05,1.16.16.38.11.74.28,1.07.5.33.23.63.5.91.82.27.32.49.69.66,1.11.23.56.35,1.13.35,1.72s-.11,1.17-.32,1.72-.52,1.03-.93,1.42l-.41.35ZM811.64,172.94h12.18c.3,0,.6-.06.92-.17.31-.12.59-.29.84-.51.25-.23.45-.49.61-.8.16-.31.23-.66.23-1.05s-.08-.76-.23-1.08c-.16-.32-.36-.59-.62-.8s-.54-.38-.86-.5c-.32-.12-.64-.17-.96-.17h-12.1v5.1ZM826.22,178.68c.13-.33.19-.68.19-1.07s-.07-.75-.2-1.1c-.14-.34-.32-.64-.56-.91-.23-.26-.51-.47-.82-.63s-.64-.23-.99-.23h-12.2v5.71h12.2c.49,0,.96-.16,1.41-.49.45-.33.77-.75.97-1.28Z"/>
      <path d="M847.15,182.22v-5.13h-2.07c-.78,0-1.51-.17-2.18-.52s-1.25-.82-1.75-1.41c-.51-.61-.91-1.31-1.2-2.11-.29-.8-.44-1.66-.44-2.58v-4.4h1.48v4.4c0,.65.11,1.27.32,1.86.21.59.5,1.11.87,1.55.37.44.79.79,1.28,1.05.49.26,1.01.38,1.57.38h5.56c.55,0,1.07-.13,1.56-.38s.93-.6,1.3-1.04c.37-.43.66-.94.88-1.53.21-.58.32-1.2.32-1.85v-4.45h1.48v4.4c0,.92-.15,1.78-.44,2.58-.29.8-.69,1.5-1.2,2.11-.49.59-1.08,1.06-1.75,1.41s-1.39.52-2.16.52h-1.97v5.13h-1.48Z"/>
      <path d="M895.19,182.22h-12.9v-1.77h12.9c.31,0,.6-.07.88-.21.27-.14.51-.33.72-.58.21-.25.37-.54.49-.86.12-.33.18-.68.18-1.05s-.06-.73-.18-1.06c-.12-.33-.28-.62-.48-.87-.2-.25-.44-.44-.72-.58-.28-.14-.57-.21-.89-.21h-9.89c-.51,0-.99-.12-1.45-.35-.46-.23-.86-.55-1.2-.96-.34-.4-.62-.88-.81-1.42-.19-.54-.29-1.13-.29-1.75s.1-1.2.29-1.74c.2-.54.46-1.01.8-1.41.34-.4.73-.73,1.19-.97.46-.24.94-.36,1.46-.36h12.9v1.77h-12.9c-.33,0-.62.07-.89.22-.27.15-.5.33-.7.56-.2.23-.36.5-.48.83-.12.33-.18.68-.2,1.05.05.78.29,1.43.7,1.96.42.53.94.79,1.56.79h9.89c.52,0,1.01.12,1.46.35.46.23.85.55,1.19.96.34.4.61.88.8,1.42.2.54.29,1.13.29,1.75s-.1,1.2-.29,1.75c-.2.54-.46,1.02-.8,1.43-.34.41-.73.73-1.19.97-.46.23-.94.35-1.46.35Z"/>
      <path d="M926.02,168c.49.61.89,1.31,1.18,2.11.29.8.44,1.66.44,2.57v9.53h-1.48v-6.99h-14.71v6.99h-1.48v-9.53c0-.92.15-1.77.44-2.57.29-.8.69-1.5,1.2-2.1.51-.6,1.1-1.07,1.77-1.42s1.38-.52,2.14-.52h6.6c.77,0,1.48.17,2.15.52s1.26.82,1.77,1.41ZM926.16,173.46v-.82c0-.65-.11-1.27-.32-1.85s-.51-1.09-.88-1.53c-.37-.43-.8-.78-1.3-1.04s-1.02-.38-1.56-.38h-6.63c-.55,0-1.06.13-1.55.38-.49.26-.91.61-1.28,1.05-.36.44-.65.96-.87,1.54-.21.58-.32,1.21-.32,1.88v.77h14.71Z"/>
      <path d="M941.51,166.07v9.51c0,.68.1,1.32.31,1.9.21.58.5,1.09.88,1.53.38.45.81.8,1.3,1.06.49.26,1.01.38,1.57.38h11.39v1.77h-11.39c-.77,0-1.49-.17-2.16-.52-.67-.35-1.26-.83-1.77-1.43-.49-.59-.89-1.29-1.18-2.09-.29-.8-.44-1.67-.44-2.6v-9.51h1.48Z"/>
      <path d="M976.99,182.22h-.45l-10.22-16.15h1.85l8.78,13.89,8.88-13.89h1.87l-10.34,16.15h-.37Z"/>
      <path d="M998.66,182.22v-16.15h1.48v16.15h-1.48Z"/>
      <path d="M1010.78,171.1l1.19-5.2h1.66l-1.19,5.2h-1.66Z"/>
      <path d="M1037.45,182.22h-12.9v-1.77h12.9c.31,0,.61-.07.88-.21.27-.14.51-.33.72-.58.21-.25.37-.54.49-.86.12-.33.18-.68.18-1.05s-.06-.73-.18-1.06c-.12-.33-.28-.62-.48-.87-.2-.25-.44-.44-.72-.58-.28-.14-.58-.21-.89-.21h-9.89c-.51,0-.99-.12-1.44-.35-.46-.23-.86-.55-1.2-.96-.35-.4-.62-.88-.81-1.42-.2-.54-.29-1.13-.29-1.75s.1-1.2.29-1.74c.2-.54.46-1.01.8-1.41.34-.4.73-.73,1.19-.97.46-.24.94-.36,1.46-.36h12.9v1.77h-12.9c-.32,0-.62.07-.89.22-.27.15-.5.33-.7.56-.2.23-.36.5-.48.83-.12.33-.18.68-.2,1.05.05.78.29,1.43.7,1.96.42.53.94.79,1.56.79h9.89c.52,0,1.01.12,1.46.35.46.23.85.55,1.19.96.34.4.61.88.8,1.42.2.54.29,1.13.29,1.75s-.1,1.2-.29,1.75c-.19.54-.46,1.02-.8,1.43-.34.41-.74.73-1.19.97-.46.23-.94.35-1.46.35Z"/>
      <path d="M1080.24,182.22h-12.9v-1.77h12.9c.31,0,.61-.07.88-.21.27-.14.51-.33.72-.58.21-.25.37-.54.49-.86.12-.33.18-.68.18-1.05s-.06-.73-.18-1.06c-.12-.33-.28-.62-.48-.87-.2-.25-.44-.44-.72-.58-.28-.14-.58-.21-.89-.21h-9.89c-.51,0-.99-.12-1.44-.35-.46-.23-.86-.55-1.2-.96-.35-.4-.62-.88-.81-1.42-.2-.54-.29-1.13-.29-1.75s.1-1.2.29-1.74c.2-.54.46-1.01.8-1.41.34-.4.73-.73,1.19-.97.46-.24.94-.36,1.46-.36h12.9v1.77h-12.9c-.32,0-.62.07-.89.22-.27.15-.5.33-.7.56-.2.23-.36.5-.48.83-.12.33-.18.68-.2,1.05.05.78.29,1.43.7,1.96.42.53.94.79,1.56.79h9.89c.52,0,1.01.12,1.46.35.46.23.85.55,1.19.96.34.4.61.88.8,1.42.2.54.29,1.13.29,1.75s-.1,1.2-.29,1.75c-.19.54-.46,1.02-.8,1.43-.34.41-.74.73-1.19.97-.46.23-.94.35-1.46.35Z"/>
      <path d="M1097.68,169.26c-.38.45-.67.97-.88,1.55-.21.58-.31,1.21-.31,1.88v.58h15.47v1.77h-15.47v.61c0,.65.11,1.27.32,1.85s.51,1.09.88,1.53c.37.44.8.78,1.3,1.04s1.01.38,1.56.38h11.41v1.77h-11.41c-.77,0-1.49-.17-2.16-.52-.67-.35-1.26-.83-1.76-1.43-.5-.61-.9-1.31-1.19-2.11-.29-.8-.44-1.65-.44-2.55v-2.91c0-.92.15-1.77.44-2.57.29-.8.69-1.5,1.2-2.1.51-.6,1.1-1.07,1.77-1.42s1.38-.52,2.14-.52h11.41v1.77h-11.41c-.56,0-1.08.12-1.57.37-.49.25-.92.6-1.3,1.05Z"/>
      <path d="M1140.67,174.51c-.65.75-1.45,1.2-2.38,1.37l3.96,6.34h-1.85l-3.92-6.27h-11.45v6.27h-1.48v-16.15h14.09c.44,0,.87.07,1.28.21.41.14.79.34,1.12.61.59.45,1.06,1.04,1.41,1.76s.54,1.51.54,2.37c0,.68-.12,1.32-.34,1.92-.23.6-.55,1.12-.96,1.57ZM1125.02,174.18h12.68c.36,0,.71-.08,1.05-.24.34-.16.63-.39.89-.68.25-.29.46-.62.62-1,.16-.38.23-.8.23-1.25s-.08-.87-.23-1.26c-.16-.39-.37-.72-.63-1-.27-.28-.57-.5-.92-.66-.35-.16-.71-.24-1.08-.24h-12.6v6.34Z"/>
      <path d="M1162.27,182.22h-.45l-10.22-16.15h1.85l8.78,13.89,8.88-13.89h1.87l-10.34,16.15h-.37Z"/>
      <path d="M1183.95,182.22v-16.15h1.48v16.15h-1.48Z"/>
      <path d="M1198.09,180.28c-.51-.61-.91-1.31-1.2-2.11-.29-.8-.44-1.66-.44-2.57v-2.91c0-.9.15-1.76.44-2.56.29-.81.69-1.51,1.19-2.11.5-.6,1.09-1.07,1.77-1.42.68-.35,1.4-.52,2.16-.52h11.4v1.77h-11.4c-.56,0-1.09.13-1.58.38s-.93.61-1.3,1.05c-.37.44-.66.96-.88,1.54-.21.58-.32,1.21-.32,1.88v2.91c0,.65.11,1.27.32,1.86.21.59.5,1.11.87,1.55.36.44.79.79,1.28,1.05s1.01.38,1.57.38h11.44v1.77h-11.4c-.77,0-1.49-.17-2.16-.52-.68-.35-1.26-.82-1.76-1.41Z"/>
      <path d="M1227.11,169.26c-.38.45-.67.97-.88,1.55-.21.58-.31,1.21-.31,1.88v.58h15.47v1.77h-15.47v.61c0,.65.11,1.27.32,1.85s.51,1.09.88,1.53c.37.44.8.78,1.3,1.04s1.01.38,1.56.38h11.41v1.77h-11.41c-.77,0-1.49-.17-2.16-.52-.67-.35-1.26-.83-1.76-1.43-.5-.61-.9-1.31-1.19-2.11-.29-.8-.44-1.65-.44-2.55v-2.91c0-.92.15-1.77.44-2.57.29-.8.69-1.5,1.2-2.1.51-.6,1.1-1.07,1.77-1.42s1.38-.52,2.14-.52h11.41v1.77h-11.41c-.56,0-1.08.12-1.57.37-.49.25-.92.6-1.3,1.05Z"/>
      <path d="M1265.86,182.22h-12.9v-1.77h12.9c.31,0,.6-.07.88-.21.27-.14.51-.33.72-.58.21-.25.37-.54.49-.86.12-.33.18-.68.18-1.05s-.06-.73-.18-1.06c-.12-.33-.28-.62-.48-.87-.2-.25-.44-.44-.72-.58-.28-.14-.57-.21-.89-.21h-9.89c-.51,0-.99-.12-1.45-.35-.46-.23-.86-.55-1.2-.96-.34-.4-.62-.88-.81-1.42-.19-.54-.29-1.13-.29-1.75s.1-1.2.29-1.74c.2-.54.46-1.01.8-1.41.34-.4.73-.73,1.19-.97.46-.24.94-.36,1.46-.36h12.9v1.77h-12.9c-.33,0-.62.07-.89.22-.27.15-.5.33-.7.56-.2.23-.36.5-.48.83-.12.33-.18.68-.2,1.05.05.78.29,1.43.7,1.96.42.53.94.79,1.56.79h9.89c.52,0,1.01.12,1.46.35.46.23.85.55,1.19.96.34.4.61.88.8,1.42.2.54.29,1.13.29,1.75s-.1,1.2-.29,1.75c-.2.54-.46,1.02-.8,1.43-.34.41-.73.73-1.19.97-.46.23-.94.35-1.46.35Z"/>
    </g>
  </g>
</svg>